<svg width="35" height="35" viewBox="0 0 35 35" fill="none" xmlns="http://www.w3.org/2000/svg">
<path d="M29.3256 15.7551C29.3256 22.0229 24.2446 27.1039 17.9768 27.1039C11.709 27.1039 6.62793 22.0229 6.62793 15.7551C6.62793 9.4873 11.709 4.40625 17.9768 4.40625C24.2446 4.40625 29.3256 9.4873 29.3256 15.7551Z" fill="#FFBB0D"/>
<path fill-rule="evenodd" clip-rule="evenodd" d="M30.1663 15.755C30.1663 22.4871 24.7089 27.9445 17.9768 27.9445C11.2448 27.9445 5.78735 22.4871 5.78735 15.755C5.78735 9.02297 11.2448 3.56555 17.9768 3.56555C24.7089 3.56555 30.1663 9.02297 30.1663 15.755ZM17.9768 27.1039C24.2446 27.1039 29.3257 22.0228 29.3257 15.755C29.3257 9.48725 24.2446 4.40621 17.9768 4.40621C11.7091 4.40621 6.62801 9.48725 6.62801 15.755C6.62801 22.0228 11.7091 27.1039 17.9768 27.1039Z" fill="#E89B05"/>
<path fill-rule="evenodd" clip-rule="evenodd" d="M7.46871 16.1753C7.23657 16.1753 7.04838 15.9871 7.04838 15.755C7.04838 9.71932 11.9412 4.82646 17.9769 4.82646C18.209 4.82646 18.3972 5.01464 18.3972 5.24678C18.3972 5.47892 18.209 5.66711 17.9769 5.66711C12.4055 5.66711 7.88904 10.1836 7.88904 15.755C7.88904 15.9871 7.70085 16.1753 7.46871 16.1753Z" fill="#E8AA0A"/>
<path fill-rule="evenodd" clip-rule="evenodd" d="M28.4849 15.3347C28.717 15.3347 28.9052 15.5229 28.9052 15.755C28.9052 21.7907 24.0124 26.6836 17.9767 26.6836C17.7446 26.6836 17.5564 26.4954 17.5564 26.2632C17.5564 26.0311 17.7446 25.8429 17.9767 25.8429C23.5481 25.8429 28.0646 21.3264 28.0646 15.755C28.0646 15.5229 28.2528 15.3347 28.4849 15.3347Z" fill="#E8AA0A"/>
<path d="M26.3832 15.7551C26.3832 20.3979 22.6194 24.1616 17.9766 24.1616C13.3338 24.1616 9.57007 20.3979 9.57007 15.7551C9.57007 11.1122 13.3338 7.34851 17.9766 7.34851C22.6194 7.34851 26.3832 11.1122 26.3832 15.7551Z" fill="#FFDD28"/>
<path fill-rule="evenodd" clip-rule="evenodd" d="M27.2239 15.755C27.2239 20.8621 23.0838 25.0022 17.9767 25.0022C12.8696 25.0022 8.72949 20.8621 8.72949 15.755C8.72949 10.6479 12.8696 6.50781 17.9767 6.50781C23.0838 6.50781 27.2239 10.6479 27.2239 15.755ZM17.9767 24.1616C22.6195 24.1616 26.3832 20.3978 26.3832 15.755C26.3832 11.1122 22.6195 7.34847 17.9767 7.34847C13.3339 7.34847 9.57015 11.1122 9.57015 15.755C9.57015 20.3978 13.3339 24.1616 17.9767 24.1616Z" fill="#E89B05"/>
<path fill-rule="evenodd" clip-rule="evenodd" d="M17.9767 22.9006C21.9231 22.9006 25.1222 19.7014 25.1222 15.755C25.1222 15.5229 25.3104 15.3347 25.5426 15.3347C25.7747 15.3347 25.9629 15.5229 25.9629 15.755C25.9629 20.1657 22.3873 23.7412 17.9767 23.7412C17.7445 23.7412 17.5563 23.553 17.5563 23.3209C17.5563 23.0887 17.7445 22.9006 17.9767 22.9006Z" fill="#ECC704"/>
<path fill-rule="evenodd" clip-rule="evenodd" d="M17.9767 8.60945C14.0303 8.60945 10.8311 11.8086 10.8311 15.755C10.8311 15.9872 10.6429 16.1753 10.4108 16.1753C10.1787 16.1753 9.99048 15.9872 9.99048 15.755C9.99048 11.3444 13.566 7.7688 17.9767 7.7688C18.2088 7.7688 18.397 7.95699 18.397 8.18913C18.397 8.42127 18.2088 8.60945 17.9767 8.60945Z" fill="#FFEF9C"/>
<path d="M5.13174 26.9454L4.04907 24.7801C3.93117 24.5443 4.10264 24.2668 4.36628 24.2668L9.11221 24.2668C9.30807 24.2668 9.46686 24.4256 9.46686 24.6215L9.46686 29.5866C9.46686 29.7825 9.30807 29.9413 9.11221 29.9413L4.36628 29.9413C4.10264 29.9413 3.93117 29.6638 4.04907 29.428L5.13174 27.2627C5.18167 27.1628 5.18167 27.0453 5.13174 26.9454Z" fill="#C52229"/>
<path d="M30.8252 26.9454L31.9079 24.7801C32.0258 24.5443 31.8543 24.2668 31.5907 24.2668L26.8448 24.2668C26.6489 24.2668 26.4901 24.4256 26.4901 24.6215L26.4901 29.5866C26.4901 29.7825 26.6489 29.9413 26.8448 29.9413L31.5907 29.9413C31.8543 29.9413 32.0258 29.6638 31.9079 29.428L30.8252 27.2627C30.7753 27.1628 30.7753 27.0453 30.8252 26.9454Z" fill="#C52229"/>
<path fill-rule="evenodd" clip-rule="evenodd" d="M4.41801 27.1039L3.41464 25.0971C3.06093 24.3897 3.57534 23.5574 4.36627 23.5574L9.1122 23.5574C9.6998 23.5574 10.1761 24.0337 10.1761 24.6213L10.1761 29.5864C10.1761 30.174 9.6998 30.6504 9.1122 30.6504L4.36627 30.6504C3.57534 30.6504 3.06093 29.818 3.41464 29.1106L4.41801 27.1039ZM4.49711 27.2621C4.49718 27.2622 4.49724 27.2624 4.49731 27.2625L4.81453 27.1039L4.49731 27.2625L4.49711 27.2621ZM31.5389 27.1039L32.5423 25.0971C32.896 24.3897 32.3816 23.5574 31.5907 23.5574L26.8448 23.5574C26.2571 23.5574 25.7808 24.0337 25.7808 24.6213L25.7808 29.5864C25.7808 30.174 26.2571 30.6504 26.8448 30.6504L31.5907 30.6504C32.3816 30.6504 32.896 29.8181 32.5423 29.1106L31.5389 27.1039ZM31.9079 24.7799L30.8252 26.9453C30.7753 27.0451 30.7753 27.1626 30.8252 27.2625L31.9079 29.4278C32.0258 29.6636 31.8543 29.9411 31.5907 29.9411L26.8448 29.9411C26.6489 29.9411 26.4901 29.7823 26.4901 29.5864L26.4901 24.6213C26.4901 24.4255 26.6489 24.2667 26.8448 24.2667L31.5907 24.2667C31.8543 24.2667 32.0258 24.5441 31.9079 24.7799ZM4.04906 24.7799L5.13173 26.9453C5.18165 27.0451 5.18165 27.1626 5.13173 27.2625L4.04906 29.4278C3.93115 29.6636 4.10262 29.9411 4.36627 29.9411L9.1122 29.9411C9.30806 29.9411 9.46685 29.7823 9.46685 29.5864L9.46685 24.6213C9.46685 24.4255 9.30806 24.2667 9.1122 24.2667L4.36627 24.2667C4.10262 24.2667 3.93115 24.5441 4.04906 24.7799Z" fill="#9B0F15"/>
<path fill-rule="evenodd" clip-rule="evenodd" d="M4.55632 24.5874C4.62127 24.4844 4.73455 24.4219 4.85636 24.4219H6.36363C6.5595 24.4219 6.71828 24.5807 6.71828 24.7765C6.71828 24.9724 6.5595 25.1312 6.36363 25.1312H5.4191L6.15159 26.6628C6.2361 26.8395 6.16137 27.0512 5.98467 27.1357C5.80797 27.2202 5.59622 27.1455 5.51171 26.9688L4.53642 24.9295C4.48386 24.8197 4.49138 24.6905 4.55632 24.5874Z" fill="#DF3840"/>
<path d="M27.9087 28.1679L27.9087 23.2028C27.9087 23.0069 27.7499 22.8481 27.554 22.8481L8.40288 22.8481C8.20701 22.8481 8.04823 23.0069 8.04823 23.2028L8.04823 28.1679C8.04823 28.3638 8.20701 28.5226 8.40288 28.5226L27.554 28.5226C27.7499 28.5226 27.9087 28.3638 27.9087 28.1679Z" fill="#F1333B"/>
<path fill-rule="evenodd" clip-rule="evenodd" d="M28.6182 23.2029L28.6182 28.168C28.6182 28.7556 28.1418 29.2319 27.5542 29.2319L8.40305 29.2319C7.81544 29.2319 7.3391 28.7556 7.3391 28.168L7.3391 23.2029C7.3391 22.6153 7.81544 22.1389 8.40305 22.1389L27.5542 22.1389C28.1418 22.1389 28.6182 22.6153 28.6182 23.2029ZM27.9089 23.2029L27.9089 28.168C27.9089 28.3639 27.7501 28.5226 27.5542 28.5226L8.40305 28.5226C8.20718 28.5226 8.0484 28.3639 8.0484 28.168L8.0484 23.2029C8.0484 23.007 8.20718 22.8482 8.40305 22.8482L27.5542 22.8482C27.7501 22.8482 27.9089 23.007 27.9089 23.2029Z" fill="#9B0F15"/>
<path d="M26.9293 25.8201C26.7285 25.8201 26.5657 25.6613 26.5657 25.4654C26.5657 25.2694 26.7285 25.1106 26.9293 25.1106C27.1302 25.1106 27.293 25.2694 27.293 25.4654C27.293 25.6613 27.1302 25.8201 26.9293 25.8201Z" fill="#DB1B24"/>
<path d="M25.5457 25.6782C25.2959 25.6782 25.0934 25.4807 25.0934 25.2369C25.0934 24.9932 25.2959 24.7957 25.5457 24.7957C25.7955 24.7957 25.998 24.9932 25.998 25.2369C25.998 25.4807 25.7955 25.6782 25.5457 25.6782Z" fill="#DB1B24"/>
<path d="M26.162 26.6871C26.0371 26.6871 25.9359 26.5883 25.9359 26.4665C25.9359 26.3446 26.0371 26.2458 26.162 26.2458C26.2869 26.2458 26.3882 26.3446 26.3882 26.4665C26.3882 26.5883 26.2869 26.6871 26.162 26.6871Z" fill="#DB1B24"/>
<path d="M25.7719 24.3534C25.647 24.3534 25.5457 24.2546 25.5457 24.1328C25.5457 24.0109 25.647 23.9121 25.7719 23.9121C25.8968 23.9121 25.998 24.0109 25.998 24.1328C25.998 24.2546 25.8968 24.3534 25.7719 24.3534Z" fill="#DB1B24"/>
<path d="M24.5834 26.4664C24.4585 26.4664 24.3573 26.3676 24.3573 26.2458C24.3573 26.1239 24.4585 26.0251 24.5834 26.0251C24.7083 26.0251 24.8096 26.1239 24.8096 26.2458C24.8096 26.3676 24.7083 26.4664 24.5834 26.4664Z" fill="#DB1B24"/>
<path d="M24.3573 25.3312C24.2324 25.3312 24.1312 25.2324 24.1312 25.1105C24.1312 24.9887 24.2324 24.8899 24.3573 24.8899C24.4822 24.8899 24.5835 24.9887 24.5835 25.1105C24.5835 25.2324 24.4822 25.3312 24.3573 25.3312Z" fill="#DB1B24"/>
<path d="M22.8153 27.8905C22.6904 27.8905 22.5892 27.7917 22.5892 27.6699C22.5892 27.548 22.6904 27.4492 22.8153 27.4492C22.9402 27.4492 23.0415 27.548 23.0415 27.6699C23.0415 27.7917 22.9402 27.8905 22.8153 27.8905Z" fill="#DB1B24"/>
<path d="M27.3151 27.0482C27.1902 27.0482 27.0889 26.9494 27.0889 26.8276C27.0889 26.7057 27.1902 26.6069 27.3151 26.6069C27.44 26.6069 27.5413 26.7057 27.5413 26.8276C27.5413 26.9494 27.44 27.0482 27.3151 27.0482Z" fill="#DB1B24"/>
<path d="M25.1776 27.5316C24.9743 27.5316 24.8095 27.3709 24.8095 27.1726C24.8095 26.9742 24.9743 26.8135 25.1776 26.8135C25.3809 26.8135 25.5457 26.9742 25.5457 27.1726C25.5457 27.3709 25.3809 27.5316 25.1776 27.5316Z" fill="#DB1B24"/>
<path d="M26.7562 27.8905C26.5529 27.8905 26.3881 27.7298 26.3881 27.5314C26.3881 27.3331 26.5529 27.1724 26.7562 27.1724C26.9595 27.1724 27.1243 27.3331 27.1243 27.5314C27.1243 27.7298 26.9595 27.8905 26.7562 27.8905Z" fill="#DB1B24"/>
<path d="M23.537 27.1845C23.3337 27.1845 23.1689 27.0237 23.1689 26.8254C23.1689 26.6271 23.3337 26.4663 23.537 26.4663C23.7402 26.4663 23.905 26.6271 23.905 26.8254C23.905 27.0237 23.7402 27.1845 23.537 27.1845Z" fill="#DB1B24"/>
<path d="M24.1313 27.9996C24.0064 27.9996 23.9051 27.9008 23.9051 27.779C23.9051 27.6571 24.0064 27.5583 24.1313 27.5583C24.2562 27.5583 24.3574 27.6571 24.3574 27.779C24.3574 27.9008 24.2562 27.9996 24.1313 27.9996Z" fill="#DB1B24"/>
<path fill-rule="evenodd" clip-rule="evenodd" d="M8.27002 23.3581C8.27002 23.1622 8.4288 23.0034 8.62467 23.0034H21.9241C22.12 23.0034 22.2787 23.1622 22.2787 23.3581C22.2787 23.5539 22.12 23.7127 21.9241 23.7127H8.97932V26.1953C8.97932 26.3911 8.82054 26.5499 8.62467 26.5499C8.4288 26.5499 8.27002 26.3911 8.27002 26.1953V23.3581Z" fill="#FE666D"/>
<path d="M18.8882 18.8026H17.5982V13.8298L16.0581 14.3074V13.2584L18.7499 12.2942H18.8882V18.8026Z" fill="#FFEF9C"/>
<path fill-rule="evenodd" clip-rule="evenodd" d="M19.6502 18.8025C19.6502 19.2232 19.3091 19.5643 18.8884 19.5643H17.5983C17.1775 19.5643 16.8364 19.2232 16.8364 18.8025V14.8636L16.2839 15.035C16.0527 15.1067 15.8012 15.0642 15.6063 14.9206C15.4114 14.777 15.2964 14.5494 15.2964 14.3073V13.2583C15.2964 12.9366 15.4985 12.6495 15.8013 12.5411L18.4931 11.5769C18.5755 11.5473 18.6624 11.5322 18.75 11.5322H18.8884C19.3091 11.5322 19.6502 11.8733 19.6502 12.2941V18.8025ZM17.5983 13.8297V18.8025H18.8884V12.2941H18.75L16.0582 13.2583V14.3073L17.5983 13.8297Z" fill="#E89B05"/>
</svg>
