<svg width="54" height="33" viewBox="0 0 54 33" fill="none" xmlns="http://www.w3.org/2000/svg">
<path d="M0 13C0 5.8203 5.8203 0 13 0H41C48.1797 0 54 5.8203 54 13V20C54 27.1797 48.1797 33 41 33H13C5.8203 33 0 27.1797 0 20V13Z" fill="#4F7F98"/>
<path d="M15.6464 16.1464C15.4512 16.3417 15.4512 16.6583 15.6464 16.8536L18.8284 20.0355C19.0237 20.2308 19.3403 20.2308 19.5355 20.0355C19.7308 19.8403 19.7308 19.5237 19.5355 19.3284L16.7071 16.5L19.5355 13.6716C19.7308 13.4763 19.7308 13.1597 19.5355 12.9645C19.3403 12.7692 19.0237 12.7692 18.8284 12.9645L15.6464 16.1464ZM37 17C37.2761 17 37.5 16.7761 37.5 16.5C37.5 16.2239 37.2761 16 37 16V17ZM16 17H37V16H16V17Z" fill="white"/>
</svg>
