<svg width="72" height="32" viewBox="0 0 72 32" fill="none" xmlns="http://www.w3.org/2000/svg">
<path d="M13.8475 11.5278L14.1056 13.9495C14.6219 13.0024 15.321 12.2597 16.2029 11.7215C17.0848 11.1833 18.1066 10.9142 19.2681 10.9142C20.3867 10.9142 21.3224 11.1618 22.0753 11.6569C22.8281 12.152 23.2906 12.8409 23.4627 13.7235C24.0435 12.8624 24.7533 12.1843 25.5922 11.6892C26.4526 11.1726 27.3561 10.9142 28.3025 10.9142C29.6577 10.9142 30.7225 11.3017 31.4968 12.0767C32.2927 12.8301 32.7014 13.8096 32.7229 15.0151V25.1867H29.1415V16.4036C29.0984 15.7578 28.9479 15.2196 28.6897 14.7891C28.4316 14.337 27.9584 14.0895 27.27 14.0464C26.4957 14.0464 25.8288 14.294 25.2696 14.7891C24.7103 15.2627 24.2693 15.887 23.9467 16.662C23.6455 17.4154 23.4949 18.2119 23.4949 19.0515V25.1867H19.8489V16.4036C19.8274 15.7578 19.6768 15.2196 19.3972 14.7891C19.1176 14.337 18.6228 14.0895 17.913 14.0464C17.1601 14.0464 16.504 14.294 15.9448 14.7891C15.3855 15.2627 14.9553 15.887 14.6541 16.662C14.353 17.4154 14.2024 18.2119 14.2024 19.0515V25.1867H10.5887V11.5278H13.8475Z" fill="#DCDEDD"/>
<path d="M43.2688 25.5419C41.9782 25.5419 40.8274 25.2405 39.8164 24.6377C38.8054 24.035 38.0095 23.1847 37.4287 22.0868C36.8479 20.9674 36.5575 19.6542 36.5575 18.1473C36.5575 16.6189 36.8694 15.3165 37.4932 14.2402C38.117 13.1638 38.9667 12.3458 40.0422 11.7861C41.1178 11.2048 42.3438 10.9142 43.7205 10.9142C44.71 10.9142 45.6457 11.108 46.5276 11.4955C47.4311 11.8614 48.1409 12.3673 48.6572 13.0131V0H52.2387V25.1867H48.6249V23.3461C47.9581 23.9919 47.173 24.5193 46.2695 24.9284C45.3876 25.3374 44.3873 25.5419 43.2688 25.5419ZM44.4304 22.4743C45.4844 22.4743 46.3663 22.2159 47.0762 21.6993C47.8075 21.1826 48.3238 20.4615 48.6249 19.5358V16.6297C48.3668 15.7901 47.8505 15.1012 47.0762 14.5631C46.3233 14.0249 45.4414 13.7558 44.4304 13.7558C43.656 13.7558 42.9461 13.9495 42.3008 14.337C41.677 14.703 41.1715 15.2089 40.7843 15.8547C40.3972 16.5005 40.2036 17.2432 40.2036 18.0827C40.2036 18.9008 40.3972 19.6435 40.7843 20.3108C41.1715 20.9781 41.677 21.5056 42.3008 21.893C42.9461 22.2805 43.656 22.4743 44.4304 22.4743Z" fill="#DCDEDD"/>
<path d="M64.0308 32C62.9122 32 61.955 31.8708 61.1591 31.6125C60.3633 31.3542 59.6534 31.0205 59.0296 30.6115C58.4273 30.2025 57.8573 29.7612 57.3195 29.2876L59.4491 26.8012C60.0729 27.3824 60.7289 27.8668 61.4173 28.2543C62.1271 28.6418 62.9768 28.8355 63.9663 28.8355C65.2999 28.8355 66.3647 28.5126 67.1606 27.8668C67.9565 27.221 68.3652 26.3276 68.3867 25.1867V22.894C67.9565 23.6475 67.2789 24.2825 66.3539 24.7992C65.429 25.2943 64.3104 25.5419 62.9983 25.5419C61.7507 25.5419 60.5999 25.2297 59.5459 24.6054C58.4918 23.9596 57.6529 23.0878 57.0291 21.9899C56.4053 20.892 56.0934 19.6542 56.0934 18.2765C56.0934 16.8557 56.4268 15.5964 57.0937 14.4985C57.7605 13.3791 58.6317 12.5072 59.7072 11.8829C60.7827 11.2371 61.9335 10.9142 63.1596 10.9142C64.3642 10.9142 65.429 11.1295 66.3539 11.56C67.3004 11.9691 67.9887 12.4857 68.4189 13.11L68.6771 11.5278H72.0004V25.2513C72.0004 26.5214 71.6563 27.6623 70.9679 28.6741C70.3011 29.7074 69.3654 30.5146 68.1608 31.0959C66.9562 31.6986 65.5795 32 64.0308 32ZM59.7394 18.1796C59.7394 18.9976 59.9223 19.7403 60.288 20.4077C60.6752 21.075 61.1914 21.6024 61.8367 21.9899C62.5035 22.3774 63.2457 22.5711 64.0631 22.5711C65.1386 22.5711 66.042 22.3128 66.7734 21.7962C67.5262 21.258 68.064 20.5584 68.3867 19.6973V16.7265C68.107 15.8655 67.5693 15.1766 66.7734 14.6599C65.999 14.1433 65.0956 13.885 64.0631 13.885C62.837 13.885 61.8045 14.2832 60.9655 15.0797C60.1481 15.8762 59.7394 16.9095 59.7394 18.1796Z" fill="#DCDEDD"/>
<path d="M0 21.8667C0 20.9923 0.335294 20.2404 1.00588 19.6109C1.67647 18.9814 2.41765 18.6667 3.22941 18.6667C3.97059 18.6667 4.67647 18.9814 5.34706 19.6109C6.01765 20.2404 6.35294 20.9923 6.35294 21.8667C6.35294 22.8459 6.01765 23.6328 5.34706 24.2273C4.67647 24.7869 3.97059 25.0667 3.22941 25.0667C2.41765 25.0667 1.67647 24.7869 1.00588 24.2273C0.335294 23.6328 0 22.8459 0 21.8667Z" fill="#DCDEDD"/>
</svg>
