<svg width="54" height="33" viewBox="0 0 54 33" fill="none" xmlns="http://www.w3.org/2000/svg">
<path d="M54 20C54 27.1797 48.1797 33 41 33L13 33C5.8203 33 -5.08827e-07 27.1797 -1.1365e-06 20L-1.74846e-06 13C-2.37613e-06 5.8203 5.82029 4.212e-06 13 3.58433e-06L41 1.1365e-06C48.1797 5.08827e-07 54 5.8203 54 13L54 20Z" fill="#4F7F98"/>
<path d="M38.3536 16.8536C38.5488 16.6583 38.5488 16.3417 38.3536 16.1464L35.1716 12.9645C34.9763 12.7692 34.6597 12.7692 34.4645 12.9645C34.2692 13.1597 34.2692 13.4763 34.4645 13.6716L37.2929 16.5L34.4645 19.3284C34.2692 19.5237 34.2692 19.8403 34.4645 20.0355C34.6597 20.2308 34.9763 20.2308 35.1716 20.0355L38.3536 16.8536ZM17 16C16.7239 16 16.5 16.2239 16.5 16.5C16.5 16.7761 16.7239 17 17 17L17 16ZM38 16L17 16L17 17L38 17L38 16Z" fill="white"/>
</svg>
