<svg width="35" height="35" viewBox="0 0 35 35" fill="none" xmlns="http://www.w3.org/2000/svg">
<path d="M29.3258 15.8557C29.3258 22.1235 24.2448 27.2045 17.977 27.2045C11.7092 27.2045 6.62817 22.1235 6.62817 15.8557C6.62817 9.58788 11.7092 4.50684 17.977 4.50684C24.2448 4.50684 29.3258 9.58788 29.3258 15.8557Z" fill="#BCCCD2"/>
<path fill-rule="evenodd" clip-rule="evenodd" d="M30.1666 15.8558C30.1666 22.5878 24.7092 28.0452 17.9771 28.0452C11.245 28.0452 5.7876 22.5878 5.7876 15.8558C5.7876 9.12368 11.245 3.66626 17.9771 3.66626C24.7092 3.66626 30.1666 9.12368 30.1666 15.8558ZM17.9771 27.2046C24.2449 27.2046 29.3259 22.1235 29.3259 15.8558C29.3259 9.58796 24.2449 4.50691 17.9771 4.50691C11.7093 4.50691 6.62825 9.58796 6.62825 15.8558C6.62825 22.1235 11.7093 27.2046 17.9771 27.2046Z" fill="#81A5B0"/>
<path fill-rule="evenodd" clip-rule="evenodd" d="M7.46895 16.2759C7.23681 16.2759 7.04863 16.0877 7.04863 15.8556C7.04863 9.8199 11.9415 4.92704 17.9771 4.92704C18.2093 4.92704 18.3975 5.11523 18.3975 5.34737C18.3975 5.57951 18.2093 5.7677 17.9771 5.7677C12.4058 5.7677 7.88928 10.2842 7.88928 15.8556C7.88928 16.0877 7.70109 16.2759 7.46895 16.2759Z" fill="#D0DEE3"/>
<path fill-rule="evenodd" clip-rule="evenodd" d="M28.4851 15.4353C28.7173 15.4353 28.9055 15.6235 28.9055 15.8556C28.9055 21.8913 24.0126 26.7841 17.977 26.7841C17.7448 26.7841 17.5566 26.596 17.5566 26.3638C17.5566 26.1317 17.7448 25.9435 17.977 25.9435C23.5483 25.9435 28.0648 21.427 28.0648 15.8556C28.0648 15.6235 28.253 15.4353 28.4851 15.4353Z" fill="#A2B9C1"/>
<path d="M26.3834 15.8558C26.3834 20.4986 22.6197 24.2623 17.9769 24.2623C13.3341 24.2623 9.57031 20.4986 9.57031 15.8558C9.57031 11.213 13.3341 7.44922 17.9769 7.44922C22.6197 7.44922 26.3834 11.213 26.3834 15.8558Z" fill="#C7D4D8"/>
<path fill-rule="evenodd" clip-rule="evenodd" d="M27.2241 15.8556C27.2241 20.9627 23.084 25.1028 17.9769 25.1028C12.8698 25.1028 8.72974 20.9627 8.72974 15.8556C8.72974 10.7485 12.8698 6.6084 17.9769 6.6084C23.084 6.6084 27.2241 10.7485 27.2241 15.8556ZM17.9769 24.2621C22.6197 24.2621 26.3835 20.4984 26.3835 15.8556C26.3835 11.2128 22.6197 7.44905 17.9769 7.44905C13.3341 7.44905 9.57039 11.2128 9.57039 15.8556C9.57039 20.4984 13.3341 24.2621 17.9769 24.2621Z" fill="#81A5B0"/>
<path fill-rule="evenodd" clip-rule="evenodd" d="M17.9769 23.0011C21.9233 23.0011 25.1225 19.802 25.1225 15.8556C25.1225 15.6234 25.3107 15.4353 25.5428 15.4353C25.7749 15.4353 25.9631 15.6234 25.9631 15.8556C25.9631 20.2662 22.3876 23.8418 17.9769 23.8418C17.7448 23.8418 17.5566 23.6536 17.5566 23.4215C17.5566 23.1893 17.7448 23.0011 17.9769 23.0011Z" fill="#B5C3C8"/>
<path fill-rule="evenodd" clip-rule="evenodd" d="M17.9769 8.71004C14.0306 8.71004 10.8314 11.9092 10.8314 15.8556C10.8314 16.0877 10.6432 16.2759 10.411 16.2759C10.1789 16.2759 9.99072 16.0877 9.99072 15.8556C9.99072 11.4449 13.5663 7.86938 17.9769 7.86938C18.2091 7.86938 18.3973 8.05757 18.3973 8.28971C18.3973 8.52185 18.2091 8.71004 17.9769 8.71004Z" fill="#D9EAEF"/>
<path d="M5.13174 27.046L4.04907 24.8807C3.93117 24.6449 4.10264 24.3674 4.36628 24.3674L9.11221 24.3674C9.30807 24.3674 9.46686 24.5262 9.46686 24.7221L9.46686 29.6872C9.46686 29.8831 9.30807 30.0418 9.11221 30.0418L4.36628 30.0418C4.10264 30.0418 3.93117 29.7644 4.04907 29.5286L5.13174 27.3632C5.18167 27.2634 5.18167 27.1459 5.13174 27.046Z" fill="#C52229"/>
<path d="M30.8252 27.046L31.9079 24.8807C32.0258 24.6449 31.8543 24.3674 31.5907 24.3674L26.8448 24.3674C26.6489 24.3674 26.4901 24.5262 26.4901 24.7221L26.4901 29.6872C26.4901 29.8831 26.6489 30.0418 26.8448 30.0418L31.5907 30.0418C31.8543 30.0418 32.0258 29.7644 31.9079 29.5286L30.8252 27.3632C30.7753 27.2634 30.7753 27.1459 30.8252 27.046Z" fill="#C52229"/>
<path fill-rule="evenodd" clip-rule="evenodd" d="M4.41801 27.2045L3.41464 25.1977C3.06093 24.4903 3.57534 23.658 4.36627 23.658L9.1122 23.658C9.6998 23.658 10.1761 24.1343 10.1761 24.7219L10.1761 29.687C10.1761 30.2746 9.6998 30.751 9.1122 30.751L4.36627 30.751C3.57534 30.751 3.06093 29.9186 3.41464 29.2112L4.41801 27.2045ZM4.49711 27.3627C4.49718 27.3628 4.49724 27.3629 4.49731 27.3631L4.81453 27.2045L4.49731 27.3631L4.49711 27.3627ZM31.5389 27.2045L32.5423 25.1977C32.896 24.4903 32.3816 23.658 31.5907 23.658L26.8448 23.658C26.2571 23.658 25.7808 24.1343 25.7808 24.7219L25.7808 29.687C25.7808 30.2746 26.2571 30.751 26.8448 30.751L31.5907 30.751C32.3816 30.751 32.896 29.9186 32.5423 29.2112L31.5389 27.2045ZM31.9079 24.8805L30.8252 27.0459C30.7753 27.1457 30.7753 27.2632 30.8252 27.3631L31.9079 29.5284C32.0258 29.7642 31.8543 30.0417 31.5907 30.0417L26.8448 30.0417C26.6489 30.0417 26.4901 29.8829 26.4901 29.687L26.4901 24.7219C26.4901 24.526 26.6489 24.3673 26.8448 24.3673L31.5907 24.3673C31.8543 24.3673 32.0258 24.6447 31.9079 24.8805ZM4.04906 24.8805L5.13173 27.0459C5.18165 27.1457 5.18165 27.2632 5.13173 27.3631L4.04906 29.5284C3.93115 29.7642 4.10262 30.0417 4.36627 30.0417L9.1122 30.0417C9.30806 30.0417 9.46685 29.8829 9.46685 29.687L9.46685 24.7219C9.46685 24.526 9.30806 24.3673 9.1122 24.3673L4.36627 24.3673C4.10262 24.3673 3.93115 24.6447 4.04906 24.8805Z" fill="#9B0F15"/>
<path fill-rule="evenodd" clip-rule="evenodd" d="M4.55632 24.688C4.62127 24.585 4.73455 24.5225 4.85636 24.5225H6.36363C6.5595 24.5225 6.71828 24.6812 6.71828 24.8771C6.71828 25.073 6.5595 25.2318 6.36363 25.2318H5.4191L6.15159 26.7633C6.2361 26.94 6.16137 27.1518 5.98467 27.2363C5.80797 27.3208 5.59622 27.2461 5.51171 27.0694L4.53642 25.0301C4.48386 24.9202 4.49138 24.7911 4.55632 24.688Z" fill="#DF3840"/>
<path d="M27.9087 28.2685L27.9087 23.3034C27.9087 23.1075 27.7499 22.9487 27.554 22.9487L8.40288 22.9487C8.20701 22.9487 8.04823 23.1075 8.04823 23.3034L8.04823 28.2685C8.04823 28.4644 8.20701 28.6231 8.40288 28.6231L27.554 28.6231C27.7499 28.6231 27.9087 28.4644 27.9087 28.2685Z" fill="#F1333B"/>
<path fill-rule="evenodd" clip-rule="evenodd" d="M28.6182 23.3035L28.6182 28.2686C28.6182 28.8562 28.1418 29.3325 27.5542 29.3325L8.40305 29.3325C7.81544 29.3325 7.3391 28.8562 7.3391 28.2686L7.3391 23.3035C7.3391 22.7158 7.81544 22.2395 8.40305 22.2395L27.5542 22.2395C28.1418 22.2395 28.6182 22.7159 28.6182 23.3035ZM27.9089 23.3035L27.9089 28.2686C27.9089 28.4644 27.7501 28.6232 27.5542 28.6232L8.40305 28.6232C8.20718 28.6232 8.0484 28.4644 8.0484 28.2686L8.0484 23.3035C8.0484 23.1076 8.20718 22.9488 8.40305 22.9488L27.5542 22.9488C27.7501 22.9488 27.9089 23.1076 27.9089 23.3035Z" fill="#9B0F15"/>
<path d="M26.9293 25.9207C26.7285 25.9207 26.5657 25.7619 26.5657 25.5659C26.5657 25.37 26.7285 25.2112 26.9293 25.2112C27.1302 25.2112 27.293 25.37 27.293 25.5659C27.293 25.7619 27.1302 25.9207 26.9293 25.9207Z" fill="#DB1B24"/>
<path d="M25.5457 25.7788C25.2959 25.7788 25.0934 25.5812 25.0934 25.3375C25.0934 25.0938 25.2959 24.8962 25.5457 24.8962C25.7955 24.8962 25.998 25.0938 25.998 25.3375C25.998 25.5812 25.7955 25.7788 25.5457 25.7788Z" fill="#DB1B24"/>
<path d="M26.162 26.7877C26.0371 26.7877 25.9359 26.6889 25.9359 26.5671C25.9359 26.4452 26.0371 26.3464 26.162 26.3464C26.2869 26.3464 26.3882 26.4452 26.3882 26.5671C26.3882 26.6889 26.2869 26.7877 26.162 26.7877Z" fill="#DB1B24"/>
<path d="M25.7719 24.454C25.647 24.454 25.5457 24.3552 25.5457 24.2333C25.5457 24.1115 25.647 24.0127 25.7719 24.0127C25.8968 24.0127 25.998 24.1115 25.998 24.2333C25.998 24.3552 25.8968 24.454 25.7719 24.454Z" fill="#DB1B24"/>
<path d="M24.5834 26.567C24.4585 26.567 24.3573 26.4682 24.3573 26.3464C24.3573 26.2245 24.4585 26.1257 24.5834 26.1257C24.7083 26.1257 24.8096 26.2245 24.8096 26.3464C24.8096 26.4682 24.7083 26.567 24.5834 26.567Z" fill="#DB1B24"/>
<path d="M24.3573 25.4318C24.2324 25.4318 24.1312 25.333 24.1312 25.2111C24.1312 25.0893 24.2324 24.9905 24.3573 24.9905C24.4822 24.9905 24.5835 25.0893 24.5835 25.2111C24.5835 25.333 24.4822 25.4318 24.3573 25.4318Z" fill="#DB1B24"/>
<path d="M22.8153 27.9911C22.6904 27.9911 22.5892 27.8923 22.5892 27.7704C22.5892 27.6486 22.6904 27.5498 22.8153 27.5498C22.9402 27.5498 23.0415 27.6486 23.0415 27.7704C23.0415 27.8923 22.9402 27.9911 22.8153 27.9911Z" fill="#DB1B24"/>
<path d="M27.3151 27.1488C27.1902 27.1488 27.0889 27.05 27.0889 26.9282C27.0889 26.8063 27.1902 26.7075 27.3151 26.7075C27.44 26.7075 27.5413 26.8063 27.5413 26.9282C27.5413 27.05 27.44 27.1488 27.3151 27.1488Z" fill="#DB1B24"/>
<path d="M25.1776 27.6322C24.9743 27.6322 24.8095 27.4715 24.8095 27.2731C24.8095 27.0748 24.9743 26.9141 25.1776 26.9141C25.3809 26.9141 25.5457 27.0748 25.5457 27.2731C25.5457 27.4715 25.3809 27.6322 25.1776 27.6322Z" fill="#DB1B24"/>
<path d="M26.7562 27.9911C26.5529 27.9911 26.3881 27.8304 26.3881 27.632C26.3881 27.4337 26.5529 27.2729 26.7562 27.2729C26.9595 27.2729 27.1243 27.4337 27.1243 27.632C27.1243 27.8304 26.9595 27.9911 26.7562 27.9911Z" fill="#DB1B24"/>
<path d="M23.537 27.2851C23.3337 27.2851 23.1689 27.1243 23.1689 26.926C23.1689 26.7277 23.3337 26.5669 23.537 26.5669C23.7402 26.5669 23.905 26.7277 23.905 26.926C23.905 27.1243 23.7402 27.2851 23.537 27.2851Z" fill="#DB1B24"/>
<path d="M24.1313 28.1002C24.0064 28.1002 23.9051 28.0014 23.9051 27.8796C23.9051 27.7577 24.0064 27.6589 24.1313 27.6589C24.2562 27.6589 24.3574 27.7577 24.3574 27.8796C24.3574 28.0014 24.2562 28.1002 24.1313 28.1002Z" fill="#DB1B24"/>
<path fill-rule="evenodd" clip-rule="evenodd" d="M8.27002 23.4587C8.27002 23.2628 8.4288 23.104 8.62467 23.104H21.9241C22.12 23.104 22.2787 23.2628 22.2787 23.4587C22.2787 23.6545 22.12 23.8133 21.9241 23.8133H8.97932V26.2959C8.97932 26.4917 8.82054 26.6505 8.62467 26.6505C8.4288 26.6505 8.27002 26.4917 8.27002 26.2959V23.4587Z" fill="#FE666D"/>
<path d="M20.2097 18.9032H15.7547V18.0193L17.8572 15.7785C18.1459 15.463 18.3587 15.1877 18.4955 14.9526C18.6354 14.7175 18.7054 14.4943 18.7054 14.283C18.7054 13.9944 18.6324 13.7682 18.4866 13.6045C18.3408 13.4379 18.1325 13.3545 17.8617 13.3545C17.57 13.3545 17.3394 13.4557 17.1698 13.6581C17.0031 13.8575 16.9198 14.1209 16.9198 14.4482H15.6252C15.6252 14.0524 15.719 13.6908 15.9065 13.3635C16.0969 13.0361 16.3648 12.7802 16.71 12.5957C17.0552 12.4082 17.4465 12.3145 17.884 12.3145C18.5536 12.3145 19.0729 12.4752 19.4419 12.7966C19.8139 13.118 19.9999 13.5718 19.9999 14.1581C19.9999 14.4795 19.9166 14.8068 19.7499 15.1401C19.5833 15.4734 19.2976 15.8618 18.8928 16.3052L17.4153 17.8631H20.2097V18.9032Z" fill="#D9EAEF"/>
<path fill-rule="evenodd" clip-rule="evenodd" d="M20.9717 18.9031C20.9717 19.3238 20.6306 19.6649 20.2098 19.6649H15.7548C15.3341 19.6649 14.993 19.3238 14.993 18.9031V18.0192C14.993 17.8256 15.0667 17.6392 15.1992 17.498L17.2984 15.2606C17.5669 14.9669 17.739 14.7379 17.8373 14.5692L17.8409 14.563C17.9309 14.4117 17.9436 14.3223 17.9436 14.2829C17.9436 14.2015 17.9332 14.1539 17.9257 14.1305C17.9244 14.1266 17.9232 14.1233 17.9221 14.1205C17.9099 14.1184 17.8904 14.1163 17.8618 14.1163C17.8048 14.1163 17.7809 14.1259 17.7762 14.128C17.7732 14.1293 17.7711 14.1305 17.7689 14.1322C17.7666 14.1339 17.7615 14.1381 17.7541 14.147C17.7291 14.177 17.6817 14.2526 17.6817 14.4481C17.6817 14.8688 17.3407 15.2099 16.9199 15.2099H15.6254C15.2046 15.2099 14.8635 14.8688 14.8635 14.4481C14.8635 13.9262 14.9887 13.4331 15.2455 12.9847L15.2481 12.9802C15.5117 12.5272 15.8843 12.1736 16.3488 11.9249C16.8172 11.671 17.3352 11.5525 17.8841 11.5525C18.6691 11.5525 19.3898 11.7413 19.9412 12.221C20.5124 12.715 20.7619 13.3976 20.7619 14.1579C20.7619 14.6151 20.6426 15.0585 20.4314 15.4807C20.2202 15.9032 19.8826 16.3509 19.4557 16.8187C19.4524 16.8223 19.4491 16.8258 19.4457 16.8293L19.1879 17.1011H20.2098C20.6306 17.1011 20.9717 17.4422 20.9717 17.863V18.9031ZM17.4154 17.863L18.893 16.3051C19.2977 15.8617 19.5834 15.4733 19.75 15.14C19.9167 14.8067 20 14.4793 20 14.1579C20 13.5717 19.814 13.1178 19.442 12.7964C19.073 12.475 18.5537 12.3143 17.8841 12.3143C17.4466 12.3143 17.0553 12.4081 16.7101 12.5956C16.3649 12.7801 16.0971 13.036 15.9066 13.3634C15.8469 13.4675 15.7968 13.5752 15.7561 13.6862C15.6689 13.9243 15.6254 14.1782 15.6254 14.4481H16.9199C16.9199 14.1207 17.0032 13.8574 17.1699 13.658C17.3395 13.4556 17.5702 13.3544 17.8618 13.3544C18.1326 13.3544 18.3409 13.4378 18.4867 13.6044C18.6326 13.7681 18.7055 13.9943 18.7055 14.2829C18.7055 14.4942 18.6355 14.7174 18.4957 14.9525C18.3588 15.1876 18.146 15.4629 17.8573 15.7783L15.7548 18.0192V18.9031H20.2098V17.863H17.4154Z" fill="#81A5B0"/>
</svg>
