<svg width="35" height="35" viewBox="0 0 35 35" fill="none" xmlns="http://www.w3.org/2000/svg">
<path d="M29.2427 15.9963C29.2427 22.279 24.1765 27.3722 17.9271 27.3722C11.6777 27.3722 6.61157 22.279 6.61157 15.9963C6.61157 9.71353 11.6777 4.62036 17.9271 4.62036C24.1765 4.62036 29.2427 9.71353 29.2427 15.9963Z" fill="#DCA16A"/>
<path fill-rule="evenodd" clip-rule="evenodd" d="M30.0809 15.9962C30.0809 22.7443 24.6395 28.2148 17.9272 28.2148C11.2149 28.2148 5.77344 22.7443 5.77344 15.9962C5.77344 9.24803 11.2149 3.77759 17.9272 3.77759C24.6395 3.77759 30.0809 9.24803 30.0809 15.9962ZM17.9272 27.3721C24.1766 27.3721 29.2427 22.2789 29.2427 15.9962C29.2427 9.71342 24.1766 4.62025 17.9272 4.62025C11.6778 4.62025 6.61163 9.71342 6.61163 15.9962C6.61163 22.2789 11.6778 27.3721 17.9272 27.3721Z" fill="#C38144"/>
<path fill-rule="evenodd" clip-rule="evenodd" d="M7.44998 16.4177C7.21852 16.4177 7.03088 16.2291 7.03088 15.9964C7.03088 9.94634 11.9094 5.0418 17.9273 5.0418C18.1588 5.0418 18.3464 5.23044 18.3464 5.46313C18.3464 5.69583 18.1588 5.88447 17.9273 5.88447C12.3723 5.88446 7.86907 10.4117 7.86907 15.9964C7.86907 16.2291 7.68144 16.4177 7.44998 16.4177Z" fill="#F0B57F"/>
<path fill-rule="evenodd" clip-rule="evenodd" d="M28.4043 15.575C28.6357 15.575 28.8234 15.7636 28.8234 15.9963C28.8234 22.0463 23.9449 26.9509 17.9269 26.9509C17.6954 26.9509 17.5078 26.7622 17.5078 26.5295C17.5078 26.2968 17.6954 26.1082 17.9269 26.1082C23.4819 26.1082 27.9852 21.5809 27.9852 15.9963C27.9852 15.7636 28.1728 15.575 28.4043 15.575Z" fill="#CF945D"/>
<path d="M26.309 15.9962C26.309 20.6501 22.5562 24.4228 17.9271 24.4228C13.2979 24.4228 9.54517 20.6501 9.54517 15.9962C9.54517 11.3423 13.2979 7.56958 17.9271 7.56958C22.5562 7.56958 26.309 11.3423 26.309 15.9962Z" fill="#F7BA82"/>
<path fill-rule="evenodd" clip-rule="evenodd" d="M27.1472 15.9963C27.1472 21.1156 23.0192 25.2656 17.9271 25.2656C12.835 25.2656 8.70703 21.1156 8.70703 15.9963C8.70703 10.877 12.835 6.72705 17.9271 6.72705C23.0192 6.72705 27.1472 10.877 27.1472 15.9963ZM17.9271 24.4229C22.5563 24.4229 26.309 20.6502 26.309 15.9963C26.309 11.3424 22.5563 7.56971 17.9271 7.56971C13.2979 7.56971 9.54522 11.3424 9.54522 15.9963C9.54522 20.6502 13.2979 24.4229 17.9271 24.4229Z" fill="#C38144"/>
<path fill-rule="evenodd" clip-rule="evenodd" d="M17.9271 23.1588C21.8619 23.1588 25.0517 19.952 25.0517 15.9962C25.0517 15.7635 25.2393 15.5749 25.4708 15.5749C25.7023 15.5749 25.8899 15.7635 25.8899 15.9962C25.8899 20.4174 22.3248 24.0015 17.9271 24.0015C17.6956 24.0015 17.508 23.8128 17.508 23.5801C17.508 23.3474 17.6956 23.1588 17.9271 23.1588Z" fill="#E6A66C"/>
<path fill-rule="evenodd" clip-rule="evenodd" d="M17.9272 8.83363C13.9923 8.83363 10.8025 12.0404 10.8025 15.9962C10.8025 16.2289 10.6149 16.4176 10.3835 16.4176C10.152 16.4176 9.96436 16.2289 9.96436 15.9962C9.96436 11.5751 13.5294 7.99097 17.9272 7.99097C18.1586 7.99097 18.3462 8.1796 18.3462 8.4123C18.3462 8.64499 18.1586 8.83363 17.9272 8.83363Z" fill="#FFD5AE"/>
<path d="M5.11931 27.2131L4.03982 25.0426C3.92226 24.8062 4.09323 24.5281 4.35609 24.5281L9.08811 24.5281C9.2834 24.5281 9.44172 24.6872 9.44172 24.8836L9.44172 29.8605C9.44172 30.0569 9.2834 30.216 9.08811 30.216L4.35609 30.216C4.09323 30.216 3.92226 29.9379 4.03982 29.7016L5.11931 27.531C5.16909 27.431 5.16909 27.3132 5.11931 27.2131Z" fill="#C52229"/>
<path d="M30.7374 27.2131L31.8169 25.0426C31.9345 24.8062 31.7635 24.5281 31.5007 24.5281L26.7687 24.5281C26.5734 24.5281 26.415 24.6872 26.415 24.8836L26.415 29.8605C26.415 30.0569 26.5734 30.216 26.7687 30.216L31.5007 30.216C31.7635 30.216 31.9345 29.9379 31.8169 29.7016L30.7374 27.531C30.6877 27.431 30.6877 27.3132 30.7374 27.2131Z" fill="#C52229"/>
<path fill-rule="evenodd" clip-rule="evenodd" d="M4.4078 27.3721L3.40738 25.3606C3.0547 24.6515 3.5676 23.8171 4.35621 23.8171L9.08822 23.8171C9.67411 23.8171 10.1491 24.2946 10.1491 24.8836L10.1491 29.8606C10.1491 30.4496 9.6741 30.9271 9.08822 30.9271L4.35621 30.9271C3.5676 30.9271 3.0547 30.0928 3.40738 29.3836L4.4078 27.3721ZM4.48667 27.5307C4.48674 27.5308 4.48681 27.531 4.48688 27.5311L4.80316 27.3721L4.48687 27.5311L4.48667 27.5307ZM31.4492 27.3721L32.4496 25.3606C32.8023 24.6515 32.2894 23.8171 31.5008 23.8171L26.7688 23.8171C26.1829 23.8171 25.7079 24.2946 25.7079 24.8836L25.7079 29.8606C25.7079 30.4496 26.1829 30.9271 26.7688 30.9271L31.5008 30.9271C32.2894 30.9271 32.8023 30.0928 32.4496 29.3836L31.4492 27.3721ZM31.8171 25.0426L30.7376 27.2131C30.6878 27.3132 30.6878 27.431 30.7376 27.5311L31.8171 29.7016C31.9346 29.938 31.7637 30.2161 31.5008 30.2161L26.7688 30.2161C26.5735 30.2161 26.4152 30.0569 26.4152 29.8606L26.4152 24.8836C26.4152 24.6873 26.5735 24.5281 26.7688 24.5281L31.5008 24.5281C31.7637 24.5281 31.9346 24.8062 31.8171 25.0426ZM4.03993 25.0426L5.11943 27.2131C5.16921 27.3132 5.16921 27.431 5.11943 27.5311L4.03993 29.7016C3.92238 29.938 4.09334 30.2161 4.35621 30.2161L9.08822 30.2161C9.28352 30.2161 9.44184 30.0569 9.44184 29.8606L9.44184 24.8836C9.44184 24.6873 9.28352 24.5281 9.08822 24.5281L4.35621 24.5281C4.09334 24.5281 3.92238 24.8062 4.03993 25.0426Z" fill="#9B0F15"/>
<path fill-rule="evenodd" clip-rule="evenodd" d="M4.54591 24.8498C4.61066 24.7465 4.72362 24.6838 4.84507 24.6838H6.34791C6.54321 24.6838 6.70152 24.843 6.70152 25.0393C6.70152 25.2357 6.54321 25.3948 6.34791 25.3948H5.40616L6.1365 26.9301C6.22076 27.1072 6.14625 27.3194 5.97006 27.4042C5.79388 27.4889 5.58275 27.4139 5.49849 27.2368L4.52606 25.1927C4.47366 25.0826 4.48116 24.9531 4.54591 24.8498Z" fill="#DF3840"/>
<path d="M27.8298 28.4387L27.8298 23.4617C27.8298 23.2654 27.6715 23.1062 27.4762 23.1062L8.38123 23.1062C8.18593 23.1062 8.02761 23.2654 8.02761 23.4617L8.02761 28.4387C8.02761 28.635 8.18593 28.7942 8.38123 28.7942L27.4762 28.7942C27.6715 28.7942 27.8298 28.635 27.8298 28.4387Z" fill="#F1333B"/>
<path fill-rule="evenodd" clip-rule="evenodd" d="M28.5369 23.4618L28.5369 28.4387C28.5369 29.0277 28.0619 29.5052 27.476 29.5052L8.38103 29.5052C7.79515 29.5052 7.3202 29.0277 7.3202 28.4387L7.3202 23.4618C7.3202 22.8727 7.79515 22.3953 8.38103 22.3953L27.476 22.3953C28.0619 22.3953 28.5369 22.8727 28.5369 23.4618ZM27.8296 23.4618L27.8296 28.4387C27.8296 28.6351 27.6713 28.7942 27.476 28.7942L8.38103 28.7942C8.18574 28.7942 8.02742 28.6351 8.02742 28.4387L8.02742 23.4618C8.02742 23.2654 8.18574 23.1063 8.38103 23.1063L27.476 23.1063C27.6713 23.1063 27.8296 23.2654 27.8296 23.4618Z" fill="#9B0F15"/>
<path d="M26.8533 26.085C26.653 26.085 26.4907 25.9258 26.4907 25.7294C26.4907 25.533 26.653 25.3738 26.8533 25.3738C27.0535 25.3738 27.2158 25.533 27.2158 25.7294C27.2158 25.9258 27.0535 26.085 26.8533 26.085Z" fill="#DB1B24"/>
<path d="M25.4736 25.9428C25.2245 25.9428 25.0226 25.7447 25.0226 25.5004C25.0226 25.2561 25.2245 25.0581 25.4736 25.0581C25.7226 25.0581 25.9246 25.2561 25.9246 25.5004C25.9246 25.7447 25.7226 25.9428 25.4736 25.9428Z" fill="#DB1B24"/>
<path d="M26.0882 26.9541C25.9637 26.9541 25.8627 26.855 25.8627 26.7329C25.8627 26.6107 25.9637 26.5117 26.0882 26.5117C26.2128 26.5117 26.3137 26.6107 26.3137 26.7329C26.3137 26.855 26.2128 26.9541 26.0882 26.9541Z" fill="#DB1B24"/>
<path d="M25.6991 24.6149C25.5745 24.6149 25.4736 24.5159 25.4736 24.3938C25.4736 24.2716 25.5745 24.1726 25.6991 24.1726C25.8236 24.1726 25.9246 24.2716 25.9246 24.3938C25.9246 24.5159 25.8236 24.6149 25.6991 24.6149Z" fill="#DB1B24"/>
<path d="M24.5143 26.7329C24.3897 26.7329 24.2888 26.6338 24.2888 26.5117C24.2888 26.3895 24.3897 26.2905 24.5143 26.2905C24.6388 26.2905 24.7397 26.3895 24.7397 26.5117C24.7397 26.6338 24.6388 26.7329 24.5143 26.7329Z" fill="#DB1B24"/>
<path d="M24.2889 25.5952C24.1644 25.5952 24.0634 25.4961 24.0634 25.374C24.0634 25.2519 24.1644 25.1528 24.2889 25.1528C24.4134 25.1528 24.5144 25.2519 24.5144 25.374C24.5144 25.4961 24.4134 25.5952 24.2889 25.5952Z" fill="#DB1B24"/>
<path d="M22.7516 28.1606C22.627 28.1606 22.5261 28.0616 22.5261 27.9394C22.5261 27.8173 22.627 27.7183 22.7516 27.7183C22.8761 27.7183 22.9771 27.8173 22.9771 27.9394C22.9771 28.0616 22.8761 28.1606 22.7516 28.1606Z" fill="#DB1B24"/>
<path d="M27.2379 27.3164C27.1133 27.3164 27.0124 27.2173 27.0124 27.0952C27.0124 26.973 27.1133 26.874 27.2379 26.874C27.3624 26.874 27.4634 26.973 27.4634 27.0952C27.4634 27.2173 27.3624 27.3164 27.2379 27.3164Z" fill="#DB1B24"/>
<path d="M25.1067 27.8007C24.904 27.8007 24.7397 27.6395 24.7397 27.4408C24.7397 27.242 24.904 27.0808 25.1067 27.0808C25.3093 27.0808 25.4736 27.242 25.4736 27.4408C25.4736 27.6395 25.3093 27.8007 25.1067 27.8007Z" fill="#DB1B24"/>
<path d="M26.6806 28.1606C26.4779 28.1606 26.3136 27.9994 26.3136 27.8006C26.3136 27.6018 26.4779 27.4407 26.6806 27.4407C26.8833 27.4407 27.0476 27.6018 27.0476 27.8006C27.0476 27.9994 26.8833 28.1606 26.6806 28.1606Z" fill="#DB1B24"/>
<path d="M23.4709 27.4528C23.2682 27.4528 23.1039 27.2916 23.1039 27.0929C23.1039 26.8941 23.2682 26.7329 23.4709 26.7329C23.6736 26.7329 23.8379 26.8941 23.8379 27.0929C23.8379 27.2916 23.6736 27.4528 23.4709 27.4528Z" fill="#DB1B24"/>
<path d="M24.0633 28.27C23.9388 28.27 23.8378 28.171 23.8378 28.0488C23.8378 27.9267 23.9388 27.8276 24.0633 27.8276C24.1879 27.8276 24.2888 27.9267 24.2888 28.0488C24.2888 28.171 24.1879 28.27 24.0633 28.27Z" fill="#DB1B24"/>
<path fill-rule="evenodd" clip-rule="evenodd" d="M8.24854 23.6172C8.24854 23.4209 8.40685 23.2617 8.60215 23.2617H21.8626C22.0579 23.2617 22.2162 23.4209 22.2162 23.6172C22.2162 23.8136 22.0579 23.9727 21.8626 23.9727H8.95576V26.4612C8.95576 26.6575 8.79744 26.8167 8.60215 26.8167C8.40685 26.8167 8.24854 26.6575 8.24854 26.4612V23.6172Z" fill="#FE666D"/>
<path d="M17.0205 15.2205H17.7059C18.0323 15.2205 18.2741 15.1385 18.4314 14.9744C18.5887 14.8104 18.6673 14.5926 18.6673 14.3211C18.6673 14.0586 18.5887 13.8543 18.4314 13.7081C18.2771 13.562 18.0635 13.4889 17.7905 13.4889C17.5442 13.4889 17.338 13.5575 17.1718 13.6947C17.0056 13.8289 16.9226 14.0049 16.9226 14.2227H15.6363C15.6363 13.8826 15.7268 13.5784 15.9078 13.3099C16.0917 13.0384 16.3469 12.8266 16.6733 12.6745C17.0027 12.5224 17.3647 12.4463 17.7593 12.4463C18.4447 12.4463 18.9818 12.6118 19.3705 12.943C19.7592 13.2711 19.9536 13.7245 19.9536 14.3032C19.9536 14.6015 19.8631 14.876 19.6821 15.1266C19.5011 15.3771 19.2637 15.5695 18.9699 15.7038C19.3349 15.835 19.6064 16.0319 19.7844 16.2944C19.9654 16.5569 20.0559 16.8672 20.0559 17.2251C20.0559 17.8039 19.8453 18.2677 19.4239 18.6167C19.0055 18.9657 18.4507 19.1403 17.7593 19.1403C17.1125 19.1403 16.5828 18.9687 16.1704 18.6257C15.7609 18.2826 15.5562 17.8292 15.5562 17.2654H16.8424C16.8424 17.51 16.9329 17.7099 17.1139 17.865C17.2979 18.0201 17.5234 18.0977 17.7905 18.0977C18.0961 18.0977 18.335 18.0171 18.5071 17.8561C18.6821 17.692 18.7697 17.4757 18.7697 17.2072C18.7697 16.5569 18.4136 16.2318 17.7015 16.2318H17.0205V15.2205Z" fill="#FFD5AE"/>
<path fill-rule="evenodd" clip-rule="evenodd" d="M16.2971 14.9863H15.6361C15.2166 14.9863 14.8765 14.6444 14.8765 14.2227C14.8765 13.7377 15.0083 13.2827 15.2788 12.8814L15.2799 12.8799C15.5487 12.4831 15.9157 12.1858 16.3536 11.9817L16.356 11.9806C16.7934 11.7785 17.2649 11.6826 17.7592 11.6826C18.5614 11.6826 19.2933 11.877 19.8601 12.3592C20.4441 12.8529 20.713 13.5334 20.713 14.3032C20.713 14.7692 20.5679 15.1996 20.2966 15.5753C20.279 15.5996 20.2611 15.6235 20.2428 15.6471C20.3025 15.7142 20.3585 15.7857 20.4102 15.8617C20.6886 16.2666 20.8154 16.7322 20.8154 17.2251C20.8154 18.0173 20.5143 18.7024 19.9079 19.2052C19.3197 19.6954 18.578 19.9039 17.7592 19.9039C16.9738 19.9039 16.2615 19.6927 15.686 19.2141L15.6839 19.2123C15.0912 18.7157 14.7964 18.0423 14.7964 17.2654C14.7964 16.8436 15.1365 16.5017 15.556 16.5017H16.3095C16.278 16.4178 16.2607 16.3268 16.2607 16.2318V15.2205C16.2607 15.1388 16.2735 15.0601 16.2971 14.9863ZM17.5531 16.9954C17.5846 17.0794 17.6019 17.1704 17.6019 17.2654C17.6019 17.2718 17.6022 17.2767 17.6025 17.2802C17.6031 17.2808 17.6038 17.2814 17.6045 17.2821C17.6362 17.308 17.6834 17.334 17.7903 17.334C17.8779 17.334 17.9301 17.3224 17.9571 17.3132C17.9796 17.3057 17.987 17.2992 17.9889 17.2975M17.5531 16.9954H17.7013C17.8901 16.9954 17.967 17.0281 17.988 17.0394C17.9885 17.0406 17.989 17.0419 17.9896 17.0436C17.9967 17.063 18.0099 17.1127 18.0099 17.2072C18.0099 17.2574 18.0019 17.2789 18.0003 17.283C17.9992 17.2855 17.9985 17.2867 17.9978 17.2878C17.997 17.2888 17.9945 17.2922 17.9889 17.2975M19.4238 18.6167C19.8451 18.2677 20.0558 17.8038 20.0558 17.2251C20.0558 16.8672 19.9653 16.5569 19.7843 16.2944C19.755 16.2512 19.7231 16.2098 19.6888 16.1701C19.5143 15.9689 19.2747 15.8134 18.9698 15.7038C19.2445 15.5782 19.47 15.4018 19.6461 15.1744C19.6583 15.1587 19.6702 15.1428 19.6819 15.1266C19.8629 14.876 19.9534 14.6015 19.9534 14.3032C19.9534 13.7245 19.7591 13.2711 19.3704 12.943C18.9817 12.6118 18.4446 12.4463 17.7592 12.4463C17.3645 12.4463 17.0025 12.5223 16.6732 12.6745C16.3468 12.8266 16.0916 13.0384 15.9076 13.3099C15.8749 13.3584 15.8451 13.4081 15.8183 13.459C15.6968 13.6896 15.6361 13.9441 15.6361 14.2227H16.9224C16.9224 14.0049 17.0055 13.8289 17.1716 13.6947C17.3378 13.5575 17.544 13.4889 17.7903 13.4889C18.0633 13.4889 18.2769 13.5619 18.4312 13.7081C18.5885 13.8543 18.6671 14.0586 18.6671 14.3211C18.6671 14.5926 18.5885 14.8103 18.4312 14.9744C18.274 15.1385 18.0321 15.2205 17.7057 15.2205H17.0203V16.2318H17.7013C18.4134 16.2318 18.7695 16.5569 18.7695 17.2072C18.7695 17.4757 18.682 17.692 18.5069 17.856C18.3348 18.0171 18.0959 18.0977 17.7903 18.0977C17.5233 18.0977 17.2978 18.0201 17.1138 17.865C16.9328 17.7099 16.8423 17.51 16.8423 17.2654H15.556C15.556 17.5476 15.6073 17.8022 15.7099 18.0291C15.8123 18.2555 15.9657 18.4543 16.1702 18.6257C16.5827 18.9687 17.1123 19.1402 17.7592 19.1402C18.4505 19.1402 19.0054 18.9657 19.4238 18.6167ZM17.6456 14.4569C17.6648 14.397 17.6768 14.3339 17.6807 14.2686C17.7007 14.2603 17.734 14.2525 17.7903 14.2525C17.8509 14.2525 17.8865 14.2596 17.9037 14.2645C17.9057 14.2765 17.9075 14.2949 17.9075 14.3211C17.9075 14.3829 17.8986 14.4151 17.8941 14.4275C17.8931 14.4304 17.8921 14.4327 17.8912 14.4347C17.8905 14.4349 17.8898 14.4352 17.8891 14.4354C17.8647 14.4437 17.8082 14.4569 17.7057 14.4569H17.6456Z" fill="#C28044"/>
</svg>
