<svg width="72" height="72" viewBox="0 0 72 72" fill="none" xmlns="http://www.w3.org/2000/svg">
<path d="M72 36C72 55.8822 55.8822 72 36 72C16.1177 72 0 55.8822 0 36C0 16.1177 16.1177 0 36 0C55.8822 0 72 16.1177 72 36Z" fill="#D9D9D9"/>
<path fill-rule="evenodd" clip-rule="evenodd" d="M38.5331 27.1996C38.9237 26.809 39.5568 26.809 39.9473 27.1996L48.0407 35.2929C48.2282 35.4804 48.3336 35.7348 48.3336 36C48.3336 36.2652 48.2282 36.5196 48.0407 36.7071L39.9473 44.8004C39.5568 45.191 38.9237 45.191 38.5331 44.8004C38.1426 44.4099 38.1426 43.7768 38.5331 43.3862L45.9194 36L38.5331 28.6138C38.1426 28.2233 38.1426 27.5901 38.5331 27.1996Z" fill="#292D32"/>
<path fill-rule="evenodd" clip-rule="evenodd" d="M23.6667 36C23.6667 35.4477 24.1145 35 24.6667 35H47.1067C47.659 35 48.1067 35.4477 48.1067 36C48.1067 36.5523 47.659 37 47.1067 37H24.6667C24.1145 37 23.6667 36.5523 23.6667 36Z" fill="#292D32"/>
</svg>
