<svg width="9" height="10" viewBox="0 0 9 10" fill="none" xmlns="http://www.w3.org/2000/svg">
<path d="M8.566 1.99499C8.63766 1.92584 8.69484 1.84311 8.73419 1.75162C8.77353 1.66014 8.79427 1.56173 8.79518 1.46215C8.79609 1.36257 8.77716 1.2638 8.7395 1.17161C8.70183 1.07942 8.64618 0.995654 8.5758 0.925202C8.50541 0.854749 8.4217 0.79902 8.32954 0.761266C8.23739 0.723512 8.13864 0.704489 8.03905 0.705307C7.93947 0.706125 7.84104 0.726768 7.74952 0.766031C7.658 0.805294 7.57522 0.862391 7.506 0.93399L4.5 3.93899L1.495 0.93399C1.42634 0.860304 1.34354 0.801201 1.25154 0.760209C1.15954 0.719217 1.06022 0.697175 0.95952 0.695399C0.858817 0.693622 0.758788 0.712147 0.6654 0.749868C0.572012 0.787589 0.487178 0.843733 0.415959 0.914952C0.34474 0.986171 0.288596 1.071 0.250875 1.16439C0.213154 1.25778 0.194629 1.35781 0.196406 1.45851C0.198183 1.55922 0.220225 1.65853 0.261217 1.75053C0.302208 1.84253 0.361311 1.92533 0.434997 1.99399L3.438 4.99999L0.432998 8.00499C0.300518 8.14717 0.228394 8.33521 0.231822 8.52951C0.235251 8.72381 0.313963 8.9092 0.451376 9.04661C0.588789 9.18402 0.774174 9.26274 0.968475 9.26616C1.16278 9.26959 1.35082 9.19747 1.493 9.06499L4.5 6.05999L7.505 9.06599C7.64717 9.19847 7.83522 9.27059 8.02952 9.26717C8.22382 9.26374 8.40921 9.18503 8.54662 9.04761C8.68403 8.9102 8.76274 8.72481 8.76617 8.53051C8.7696 8.33621 8.69748 8.14816 8.565 8.00599L5.562 4.99999L8.566 1.99499Z" fill="#8989CE"/>
</svg>
