<svg width="72" height="72" viewBox="0 0 72 72" fill="none" xmlns="http://www.w3.org/2000/svg">
<path d="M2.5034e-06 36C2.5034e-06 16.1178 16.1178 2.5034e-06 36 2.5034e-06C55.8823 2.5034e-06 72 16.1178 72 36C72 55.8823 55.8823 72 36 72C16.1178 72 2.5034e-06 55.8823 2.5034e-06 36Z" fill="#D9D9D9"/>
<path fill-rule="evenodd" clip-rule="evenodd" d="M33.4664 44.8004C33.0759 45.1909 32.4427 45.1909 32.0522 44.8004L23.9588 36.707C23.7713 36.5195 23.6659 36.2651 23.6659 35.9999C23.6659 35.7347 23.7713 35.4804 23.9588 35.2928L32.0522 27.1995C32.4427 26.809 33.0759 26.809 33.4664 27.1995C33.8569 27.59 33.8569 28.2232 33.4664 28.6137L26.0802 35.9999L33.4664 43.3862C33.8569 43.7767 33.8569 44.4098 33.4664 44.8004Z" fill="#292D32"/>
<path fill-rule="evenodd" clip-rule="evenodd" d="M48.332 35.9999C48.332 36.5522 47.8843 36.9999 47.332 36.9999H24.892C24.3397 36.9999 23.892 36.5522 23.892 35.9999C23.892 35.4476 24.3397 34.9999 24.892 34.9999H47.332C47.8843 34.9999 48.332 35.4476 48.332 35.9999Z" fill="#292D32"/>
</svg>
